<svg width="50" height="50" viewBox="0 0 50 50" fill="none" xmlns="http://www.w3.org/2000/svg">
<g id="ph:play-fill">
<path id="Vector" d="M42.375 25.3135C42.3763 25.844 42.2403 26.3658 41.9802 26.8282C41.72 27.2906 41.3447 27.6778 40.8906 27.9521L12.75 45.167C12.2756 45.4575 11.7322 45.6161 11.1759 45.6264C10.6197 45.6367 10.0708 45.4983 9.58594 45.2256C9.10568 44.9571 8.70562 44.5655 8.42688 44.0911C8.14815 43.6167 8.0008 43.0766 8 42.5264V8.10058C8.0008 7.55036 8.14815 7.01028 8.42688 6.53588C8.70562 6.06148 9.10568 5.66989 9.58594 5.40137C10.0708 5.12861 10.6197 4.99024 11.1759 5.00054C11.7322 5.01084 12.2756 5.16944 12.75 5.45996L40.8906 22.6748C41.3447 22.9492 41.72 23.3364 41.9802 23.7987C42.2403 24.2611 42.3763 24.783 42.375 25.3135Z" fill="white"/>
</g>
</svg>
