<svg width="100" height="100" viewBox="0 0 100 100" fill="none" xmlns="http://www.w3.org/2000/svg">
<path d="M67.375 50.3135C67.3763 50.844 67.2403 51.3658 66.9802 51.8282C66.72 52.2906 66.3447 52.6778 65.8906 52.9521L37.75 70.167C37.2756 70.4575 36.7322 70.6161 36.1759 70.6264C35.6197 70.6367 35.0708 70.4983 34.5859 70.2256C34.1057 69.9571 33.7056 69.5655 33.4269 69.0911C33.1481 68.6167 33.0008 68.0766 33 67.5264V33.1006C33.0008 32.5504 33.1481 32.0103 33.4269 31.5359C33.7056 31.0615 34.1057 30.6699 34.5859 30.4014C35.0708 30.1286 35.6197 29.9902 36.1759 30.0005C36.7322 30.0108 37.2756 30.1694 37.75 30.46L65.8906 47.6748C66.3447 47.9492 66.72 48.3364 66.9802 48.7987C67.2403 49.2611 67.3763 49.783 67.375 50.3135Z" fill="#1B011B"/>
<circle cx="50" cy="50" r="49.5" stroke="#1B011B"/>
</svg>
