<svg width="32" height="33" viewBox="0 0 32 33" fill="none" xmlns="http://www.w3.org/2000/svg">
<g clip-path="url(#clip0_135_3124)">
<path d="M16 0.5C11.7575 0.5 7.685 2.18675 4.6875 5.18625C1.68691 8.18694 0.000831175 12.2565 0 16.5C0 20.7417 1.6875 24.8142 4.6875 27.8137C7.685 30.8132 11.7575 32.5 16 32.5C20.2425 32.5 24.315 30.8132 27.3125 27.8137C30.3125 24.8142 32 20.7417 32 16.5C32 12.2583 30.3125 8.18575 27.3125 5.18625C24.315 2.18675 20.2425 0.5 16 0.5Z" fill="url(#paint0_linear_135_3124)"/>
<path d="M7.24311 16.3311C11.9081 14.2991 15.0181 12.9593 16.5731 12.3121C21.0181 10.4638 21.9406 10.1428 22.5431 10.1319C22.6756 10.1298 22.9706 10.1626 23.1631 10.3182C23.3231 10.4494 23.3681 10.6269 23.3906 10.7516C23.4106 10.8761 23.4381 11.1598 23.4156 11.3813C23.1756 13.9113 22.1331 20.0508 21.6031 22.8846C21.3806 24.0836 20.9381 24.4856 20.5106 24.5248C19.5806 24.6103 18.8756 23.9108 17.9756 23.3211C16.5681 22.3978 15.7731 21.8233 14.4056 20.9226C12.8256 19.8816 13.8506 19.3093 14.7506 18.3743C14.9856 18.1296 19.0806 14.4058 19.1581 14.0681C19.1681 14.0258 19.1781 13.8683 19.0831 13.7853C18.9906 13.7021 18.8531 13.7306 18.7531 13.7531C18.6106 13.7851 16.3631 15.2721 12.0031 18.2138C11.3656 18.6523 10.7881 18.8661 10.2681 18.8548C9.69811 18.8426 8.59811 18.5318 7.78061 18.2663C6.78061 17.9406 5.98311 17.7683 6.05311 17.2151C6.08811 16.9271 6.48561 16.6323 7.24311 16.3311Z" fill="white"/>
</g>
<defs>
<linearGradient id="paint0_linear_135_3124" x1="1600" y1="0.5" x2="1600" y2="3200.5" gradientUnits="userSpaceOnUse">
<stop stop-color="#2AABEE"/>
<stop offset="1" stop-color="#229ED9"/>
</linearGradient>
<clipPath id="clip0_135_3124">
<rect width="32" height="32" fill="white" transform="translate(0 0.5)"/>
</clipPath>
</defs>
</svg>
