<svg width="28" height="32" viewBox="0 0 28 32" fill="none" xmlns="http://www.w3.org/2000/svg">
<g clip-path="url(#clip0_135_3594)">
<path d="M20.7508 11.5224C22.7938 12.9949 25.2965 13.8614 27.9995 13.8614V8.61666C27.4879 8.61677 26.9777 8.56292 26.4772 8.456V12.5843C23.7744 12.5843 21.272 11.718 19.2287 10.2456V20.9486C19.2287 26.3028 14.9241 30.6429 9.61461 30.6429C7.6335 30.6429 5.79206 30.039 4.26245 29.0032C6.0083 30.8033 8.44298 31.9198 11.1365 31.9198C16.4464 31.9198 20.7511 27.5798 20.7511 22.2253V11.5224H20.7508ZM22.6288 6.23112C21.5847 5.08099 20.8992 3.59465 20.7508 1.95139V1.27686H19.3083C19.6714 3.36535 20.9101 5.14963 22.6288 6.23112ZM7.6207 24.8946C7.03739 24.1235 6.72208 23.18 6.7235 22.2099C6.7235 19.7612 8.69236 17.7756 11.1215 17.7756C11.5741 17.7754 12.024 17.8455 12.4555 17.9834V12.6214C11.9513 12.5518 11.4425 12.5221 10.9339 12.533V16.7065C10.5022 16.5684 10.052 16.4984 9.59919 16.4988C7.17019 16.4988 5.20144 18.4841 5.20144 20.9332C5.20144 22.665 6.18548 24.1642 7.6207 24.8946Z" fill="#FF004F"/>
<path d="M19.2283 10.2455C21.2717 11.7179 23.7739 12.5842 26.4768 12.5842V8.45589C24.968 8.13181 23.6325 7.33688 22.6283 6.23112C20.9095 5.14952 19.671 3.36524 19.3079 1.27686H15.5188V22.225C15.5102 24.6672 13.5447 26.6446 11.1208 26.6446C9.69261 26.6446 8.42364 25.9581 7.62007 24.8945C6.18507 24.1642 5.20091 22.6649 5.20091 20.9333C5.20091 18.4845 7.16966 16.4989 9.59866 16.4989C10.0641 16.4989 10.5126 16.572 10.9334 16.7066V12.5331C5.71705 12.6418 1.52197 16.9395 1.52197 22.2252C1.52197 24.8637 2.56661 27.2557 4.26214 29.0034C5.79175 30.039 7.63308 30.6431 9.6143 30.6431C14.9239 30.6431 19.2284 26.3027 19.2284 20.9486V10.2456L19.2283 10.2455Z" fill="black"/>
<path d="M26.477 8.45572V7.3397C25.1164 7.34178 23.7828 6.95759 22.6285 6.23106C23.6503 7.35902 24.9957 8.13686 26.477 8.45595V8.45572ZM19.308 1.27669C19.2734 1.07714 19.2468 0.87626 19.2283 0.674538V0H13.9965V20.9484C13.9882 23.3903 12.0227 25.3677 9.59875 25.3677C8.91157 25.3688 8.23379 25.2067 7.62016 24.8947C8.42373 25.9581 9.6927 26.6444 11.1209 26.6444C13.5447 26.6444 15.5104 24.6673 15.5189 22.2251V1.2768H19.308V1.27669ZM10.9338 12.533V11.3447C10.4966 11.2844 10.0559 11.2542 9.61461 11.2544C4.30445 11.2544 0 15.5947 0 20.9484C0 24.305 1.6917 27.2631 4.26245 29.0031C2.56692 27.2555 1.52228 24.8634 1.52228 22.225C1.52228 16.9395 5.71725 12.6417 10.9338 12.533Z" fill="#00F2EA"/>
</g>
<defs>
<clipPath id="clip0_135_3594">
<rect width="28" height="32" fill="white"/>
</clipPath>
</defs>
</svg>
