<svg width="32" height="32" viewBox="0 0 32 32" fill="none" xmlns="http://www.w3.org/2000/svg">
<g clip-path="url(#clip0_135_3598)">
<rect x="5.01221" y="5.01953" width="21.9608" height="21.9608" rx="10.9804" fill="white"/>
<path d="M15.9996 0.639648C7.51645 0.639648 0.639648 7.51645 0.639648 15.9996C0.639648 24.4828 7.51645 31.3596 15.9996 31.3596C24.4828 31.3596 31.3596 24.4828 31.3596 15.9996C31.3596 7.51645 24.4828 0.639648 15.9996 0.639648ZM21.9069 17.9692C21.9069 17.9692 23.2652 19.31 23.5996 19.9324C23.6092 19.9452 23.614 19.958 23.6172 19.9644C23.7532 20.1932 23.7852 20.3708 23.7181 20.5036C23.6061 20.7244 23.222 20.8333 23.0908 20.8428H20.6908C20.5245 20.8428 20.1756 20.7996 19.7532 20.5084C19.4284 20.2812 19.1084 19.9084 18.7964 19.5452C18.3308 19.0044 17.9277 18.5373 17.5212 18.5373C17.4696 18.5372 17.4183 18.5453 17.3692 18.5612C17.062 18.6604 16.6684 19.0988 16.6684 20.2668C16.6684 20.6316 16.3804 20.8412 16.1772 20.8412H15.078C14.7036 20.8412 12.7532 20.7101 11.0252 18.8876C8.91005 16.6556 7.00605 12.1788 6.99005 12.1372C6.87005 11.8476 7.11805 11.6924 7.38845 11.6924H9.81245C10.1356 11.6924 10.2412 11.8892 10.3148 12.0636C10.4012 12.2668 10.718 13.0748 11.238 13.9836C12.0812 15.4652 12.598 16.0668 13.0124 16.0668C13.0902 16.0659 13.1665 16.0462 13.2348 16.0092C13.7756 15.7084 13.6748 13.7804 13.6508 13.3804C13.6508 13.3052 13.6492 12.518 13.3724 12.1404C13.174 11.8668 12.8364 11.7628 12.6316 11.7244C12.7145 11.6101 12.8238 11.5173 12.95 11.454C13.3212 11.2684 13.9901 11.2412 14.654 11.2412H15.0237C15.7436 11.2508 15.9292 11.2972 16.1901 11.3628C16.7181 11.4892 16.7292 11.83 16.6828 12.9964C16.6684 13.3276 16.6541 13.702 16.6541 14.1436C16.6541 14.2396 16.6493 14.342 16.6493 14.4508C16.6332 15.0444 16.614 15.718 17.0332 15.9948C17.0879 16.0291 17.1511 16.0474 17.2157 16.0476C17.3612 16.0476 17.7996 16.0476 18.9868 14.0108C19.353 13.3553 19.6712 12.674 19.9388 11.9724C19.9628 11.9308 20.0332 11.8028 20.1164 11.7532C20.1779 11.7219 20.2459 11.706 20.3148 11.7068H23.1644C23.4748 11.7068 23.6876 11.7532 23.7276 11.8732C23.798 12.0636 23.7148 12.6444 22.414 14.406L21.8333 15.1724C20.654 16.718 20.6541 16.7964 21.9069 17.9692Z" fill="#0029FF"/>
</g>
<defs>
<clipPath id="clip0_135_3598">
<rect width="32" height="32" fill="white"/>
</clipPath>
</defs>
</svg>
