<svg width="32" height="33" viewBox="0 0 32 33" fill="none" xmlns="http://www.w3.org/2000/svg">
<g clip-path="url(#clip0_135_3120)">
<path d="M0.683437 16.3071C0.682687 19.0168 1.39069 21.6625 2.73694 23.9945L0.554688 31.9623L8.70869 29.8243C10.964 31.052 13.4909 31.6954 16.0587 31.6955H16.0654C24.5423 31.6955 31.4427 24.7976 31.4463 16.3193C31.4479 12.2109 29.8494 8.34764 26.9452 5.44114C24.0414 2.53489 20.1796 0.933516 16.0648 0.931641C7.58694 0.931641 0.687063 7.82914 0.683563 16.3071" fill="url(#paint0_linear_135_3120)"/>
<path d="M0.13375 16.302C0.132875 19.1091 0.86625 21.8495 2.2605 24.265L0 32.5184L8.44637 30.3037C10.7736 31.5726 13.3939 32.2416 16.0601 32.2426H16.067C24.848 32.2426 31.9963 25.0966 32 16.3147C32.0015 12.0588 30.3455 8.05662 27.3375 5.046C24.3291 2.03575 20.3291 0.37675 16.067 0.375C7.2845 0.375 0.13725 7.52 0.13375 16.302ZM5.16375 23.849L4.84837 23.3484C3.52262 21.2404 2.82288 18.8044 2.82387 16.303C2.82675 9.00363 8.76725 3.065 16.072 3.065C19.6095 3.0665 22.934 4.4455 25.4345 6.9475C27.9349 9.44975 29.3108 12.776 29.3099 16.3138C29.3066 23.6131 23.366 29.5525 16.067 29.5525H16.0618C13.6851 29.5513 11.3542 28.913 9.3215 27.7069L8.83775 27.42L3.8255 28.7341L5.16375 23.8489V23.849Z" fill="url(#paint1_linear_135_3120)"/>
<path d="M12.0845 9.64343C11.7862 8.98055 11.4723 8.96718 11.1887 8.95555C10.9565 8.94555 10.691 8.9463 10.4257 8.9463C10.1602 8.9463 9.72883 9.04618 9.3642 9.4443C8.9992 9.8428 7.9707 10.8058 7.9707 12.7644C7.9707 14.7232 9.39733 16.6161 9.5962 16.8819C9.79533 17.1473 12.3503 21.2953 16.3968 22.8911C19.7598 24.2172 20.4442 23.9534 21.1741 23.8869C21.9041 23.8207 23.5296 22.9242 23.8612 21.9946C24.1931 21.0651 24.1931 20.2683 24.0936 20.1018C23.9941 19.9359 23.7286 19.8363 23.3305 19.6373C22.9322 19.4382 20.975 18.4751 20.6101 18.3422C20.2451 18.2094 19.9797 18.1432 19.7142 18.5418C19.4487 18.9398 18.6863 19.8363 18.454 20.1018C18.2218 20.3679 17.9895 20.4011 17.5915 20.2019C17.1931 20.0022 15.911 19.5823 14.3898 18.2262C13.2063 17.1709 12.4073 15.8678 12.1751 15.4692C11.9428 15.0712 12.1502 14.8554 12.3498 14.6571C12.5287 14.4787 12.7481 14.1922 12.9473 13.9598C13.1458 13.7273 13.2121 13.5614 13.3448 13.2959C13.4777 13.0302 13.4112 12.7977 13.3118 12.5986C13.2121 12.3994 12.4385 10.4306 12.0845 9.64343Z" fill="white"/>
</g>
<defs>
<linearGradient id="paint0_linear_135_3120" x1="1545.14" y1="3103.99" x2="1545.14" y2="0.931641" gradientUnits="userSpaceOnUse">
<stop stop-color="#1FAF38"/>
<stop offset="1" stop-color="#60D669"/>
</linearGradient>
<linearGradient id="paint1_linear_135_3120" x1="1600" y1="3214.71" x2="1600" y2="0.375" gradientUnits="userSpaceOnUse">
<stop stop-color="#F9F9F9"/>
<stop offset="1" stop-color="white"/>
</linearGradient>
<clipPath id="clip0_135_3120">
<rect width="32" height="32.25" fill="white" transform="translate(0 0.375)"/>
</clipPath>
</defs>
</svg>
