<svg width="45" height="32" viewBox="0 0 45 32" fill="none" xmlns="http://www.w3.org/2000/svg">
<g clip-path="url(#clip0_135_3601)">
<path d="M44.0062 4.99111C43.7481 4.02641 43.2446 3.14692 42.5458 2.44023C41.8471 1.73353 40.9775 1.22429 40.0237 0.9632C36.5316 0 22.4772 0 22.4772 0C22.4772 0 8.42206 0.0291555 4.92999 0.992355C3.97612 1.25346 3.10652 1.76273 2.40779 2.46946C1.70906 3.17619 1.20558 4.05571 0.947495 5.02044C-0.108775 11.2956 -0.518521 20.8576 0.976499 26.8818C1.23461 27.8465 1.7381 28.726 2.43683 29.4327C3.13556 30.1394 4.00514 30.6486 4.959 30.9097C8.45107 31.8729 22.5058 31.8729 22.5058 31.8729C22.5058 31.8729 36.5604 31.8729 40.0523 30.9097C41.0062 30.6486 41.8758 30.1394 42.5746 29.4327C43.2734 28.726 43.7769 27.8465 44.035 26.8818C45.1491 20.5977 45.4924 11.0416 44.0062 4.99111Z" fill="#FF0000"/>
<path d="M18.0042 22.7664L29.6634 15.9366L18.0042 9.10669V22.7664Z" fill="white"/>
</g>
<defs>
<clipPath id="clip0_135_3601">
<rect width="45" height="32" fill="white"/>
</clipPath>
</defs>
</svg>
